<?xml version="1.0" standalone="no"?>
<!DOCTYPE svg PUBLIC "-//W3C//DTD SVG 20010904//EN"
 "http://www.w3.org/TR/2001/REC-SVG-20010904/DTD/svg10.dtd">
<svg version="1.0" xmlns="http://www.w3.org/2000/svg"
 width="186.000000pt" height="186.000000pt" viewBox="0 0 186.000000 186.000000"
 preserveAspectRatio="xMidYMid meet">
<metadata>
Created by potrace 1.14, written by Peter Selinger 2001-2017
</metadata>
<g transform="translate(0.000000,186.000000) scale(0.100000,-0.100000)"
fill="#000000" stroke="none">
<path d="M1735 1782 c-22 -31 -25 -42 -13 -59 12 -15 -4 -24 -22 -12 -28 17
-33 9 -9 -13 15 -13 18 -19 7 -15 -9 3 -19 3 -21 -1 -2 -4 -2 -1 -1 6 2 6 -1
12 -6 12 -6 0 -10 -7 -10 -15 0 -8 -7 -15 -15 -15 -8 0 -15 -4 -15 -10 0 -5 5
-10 10 -10 6 0 10 -5 10 -11 0 -5 -4 -7 -10 -4 -5 3 -10 1 -10 -5 0 -6 -4 -9
-9 -5 -5 3 -12 1 -15 -4 -4 -5 -1 -13 5 -17 8 -5 9 -3 4 6 -5 9 -4 11 4 6 26
-16 -2 -25 -32 -9 -30 15 -31 15 -18 0 9 -12 10 -17 2 -17 -7 0 -9 -4 -6 -10
3 -5 0 -7 -8 -4 -8 3 -18 0 -23 -7 -4 -7 -3 -10 3 -6 6 4 13 0 17 -8 5 -14 -8
-28 -31 -31 -7 -1 -13 3 -13 9 0 5 -2 8 -5 5 -10 -9 7 -38 18 -31 6 3 7 1 3
-6 -5 -7 -12 -9 -19 -3 -17 12 -56 12 -63 0 -4 -7 -2 -8 4 -4 7 4 20 2 29 -4
14 -9 14 -10 2 -7 -9 3 -23 -3 -32 -14 -9 -10 -12 -19 -7 -19 6 0 10 -5 10
-11 0 -5 -5 -7 -12 -3 -8 5 -9 2 -5 -10 4 -10 3 -15 -3 -11 -6 3 -13 -1 -17
-11 -5 -14 -8 -13 -18 7 l-13 22 -6 -21 c-4 -13 -12 -19 -18 -16 -7 5 -8 2 -2
-7 12 -20 14 -38 4 -44 -5 -3 -7 3 -5 13 2 10 -2 19 -10 19 -14 0 -8 -38 9
-50 7 -5 3 -7 -9 -5 -15 2 -19 -2 -17 -17 2 -16 1 -17 -7 -5 -7 9 -6 19 1 27
6 8 8 16 4 20 -3 3 -6 1 -6 -6 0 -7 -5 -9 -12 -5 -6 4 -8 3 -4 -4 3 -6 -3 -13
-14 -17 -11 -3 -20 -13 -20 -21 0 -8 -6 -14 -12 -14 -9 0 -8 -4 2 -10 13 -8
12 -10 -2 -10 -10 0 -18 -5 -18 -11 0 -5 -4 -8 -9 -5 -12 8 -32 -18 -29 -35 2
-9 -4 -13 -16 -11 -13 2 -16 -1 -10 -10 6 -10 5 -10 -9 0 -14 12 -16 11 -12
-7 2 -12 -1 -21 -6 -21 -6 0 -7 -5 -4 -10 4 -6 11 -7 17 -4 7 4 8 2 4 -4 -5
-9 -13 -9 -27 -1 -20 10 -20 10 -3 -18 l17 -28 -24 27 -25 26 -22 -33 c-23
-33 -25 -54 -7 -67 6 -4 -9 -6 -32 -4 -23 2 -41 0 -38 -3 2 -4 0 -13 -6 -21
-6 -10 -9 -11 -9 -2 0 20 -16 13 -17 -8 -1 -13 3 -18 10 -14 7 3 2 -3 -11 -13
-18 -15 -20 -21 -10 -31 11 -11 9 -12 -6 -6 -15 6 -17 4 -11 -7 8 -12 6 -12
-8 -1 -14 12 -20 10 -44 -13 -15 -15 -23 -25 -16 -21 6 3 15 1 19 -5 4 -7 3
-9 -4 -5 -14 8 -42 -21 -42 -45 0 -10 -5 -19 -11 -19 -5 0 -7 6 -3 13 5 7 0 6
-11 -3 -17 -14 -17 -13 -11 10 l7 25 -15 -25 c-9 -14 -15 -19 -16 -12 0 8 -5
10 -12 6 -7 -4 -10 -4 -6 1 4 4 2 15 -5 23 -8 10 -8 13 -1 9 7 -4 14 0 17 7 4
10 0 14 -12 11 -26 -5 -48 10 -26 18 9 4 13 3 10 -3 -3 -6 1 -7 9 -4 9 3 16
10 16 16 0 5 -4 7 -9 3 -6 -3 -15 3 -21 12 -11 17 -11 17 -6 -1 5 -15 4 -17
-8 -7 -7 6 -22 8 -32 4 -17 -6 -18 -5 -4 12 14 17 13 17 -10 12 -14 -4 -19 -4
-12 -1 6 3 9 11 6 16 -4 7 -2 8 4 4 7 -4 12 -2 12 3 0 6 -5 11 -11 11 -5 0 -7
6 -3 13 5 7 0 6 -11 -3 -17 -14 -18 -13 -12 2 5 14 1 17 -16 15 -14 -1 -21 3
-19 12 2 8 -3 11 -12 8 -16 -6 -40 16 -29 26 3 4 1 7 -5 7 -8 0 -9 7 -2 26 6
14 6 23 1 20 -5 -4 -11 -1 -13 5 -3 9 -10 9 -27 0 -12 -7 -25 -10 -29 -7 -3 3
0 6 6 6 6 0 9 7 5 16 -5 13 -8 13 -15 2 -7 -9 -8 -7 -5 8 6 27 -4 44 -29 49
-10 2 -20 4 -21 5 -2 2 -8 3 -13 4 -6 0 -15 7 -19 15 -5 8 -14 10 -22 6 -8 -5
-5 2 6 14 16 18 17 24 5 31 -7 5 -15 16 -16 25 -3 24 -10 28 -46 32 -18 2 -35
8 -36 13 -2 6 -7 8 -10 6 -4 -2 -8 7 -8 20 -2 23 -1 24 13 7 13 -17 13 -16 4
4 -8 15 -18 21 -33 18 -12 -3 -25 0 -28 5 -4 6 -17 12 -30 15 -25 5 -40 15
-22 15 7 0 12 5 12 11 0 5 -5 7 -12 3 -7 -4 -8 -3 -4 4 4 6 14 9 24 6 13 -5
14 -4 3 4 -8 6 -10 15 -5 23 6 12 5 12 -9 0 -19 -15 -24 -2 -6 16 7 7 4 10
-13 9 -13 0 -22 4 -21 12 2 6 -2 12 -7 12 -6 0 -10 -5 -10 -11 0 -8 -14 -10
-40 -6 -22 3 -42 1 -46 -4 -3 -5 2 -6 10 -3 9 3 16 2 16 -3 0 -15 -34 -11 -46
6 -10 12 -11 10 -9 -12 2 -15 -1 -27 -7 -27 -6 0 -8 7 -5 15 4 8 1 17 -6 21
-7 4 -9 4 -5 -1 4 -4 3 -16 -2 -26 -7 -12 -6 -20 2 -25 7 -5 8 -3 3 6 -6 9 -4
11 4 5 9 -5 10 -10 2 -18 -14 -14 -14 -47 -1 -47 6 0 10 -4 10 -10 0 -5 -8 -7
-17 -4 -16 5 -16 4 -2 -8 9 -7 15 -21 13 -31 -2 -13 2 -17 12 -13 9 3 12 1 9
-5 -4 -5 -16 -7 -28 -4 -21 6 -22 6 -3 -9 20 -16 20 -16 0 -16 -15 0 -16 -2
-4 -9 8 -6 18 -7 22 -5 4 3 5 -2 2 -10 -3 -8 -13 -12 -22 -10 -15 5 -15 4 -2
-8 17 -14 22 -101 6 -91 -5 3 -6 0 -4 -8 3 -8 10 -13 16 -12 12 3 10 -23 -3
-34 -4 -4 -5 -3 -2 3 4 7 1 14 -6 17 -10 4 -13 -2 -9 -19 2 -14 9 -21 16 -17
6 3 8 3 4 -2 -4 -4 -2 -15 5 -23 10 -13 9 -14 -2 -7 -11 6 -13 4 -8 -9 4 -10
3 -15 -3 -11 -15 9 -12 -5 5 -22 10 -9 12 -20 7 -27 -5 -6 -8 -25 -7 -43 0
-17 -3 -29 -8 -26 -5 3 -7 0 -5 -8 3 -8 10 -13 16 -12 12 3 10 -23 -3 -34 -4
-4 -5 -3 -2 3 4 7 1 14 -6 17 -10 4 -13 -2 -9 -19 2 -14 9 -21 16 -17 6 3 8 3
4 -2 -4 -4 -2 -15 5 -23 10 -13 9 -14 -2 -7 -11 6 -13 4 -8 -9 4 -10 3 -15 -3
-11 -15 9 -12 -5 5 -22 10 -9 12 -20 7 -27 -5 -6 -8 -25 -7 -43 0 -17 -3 -29
-8 -26 -5 3 -7 0 -5 -8 3 -8 10 -13 16 -12 12 3 10 -23 -3 -34 -4 -4 -5 -3 -2
3 4 7 1 14 -6 17 -10 4 -13 -2 -9 -19 2 -14 9 -21 16 -17 6 3 8 3 4 -2 -4 -4
-2 -15 5 -23 10 -13 9 -14 -2 -7 -11 6 -13 4 -8 -9 4 -10 3 -15 -3 -11 -15 9
-12 -5 5 -22 10 -9 12 -20 7 -27 -5 -6 -8 -25 -7 -43 0 -17 -3 -29 -8 -26 -5
3 -7 0 -5 -8 3 -8 10 -13 16 -12 12 3 10 -23 -3 -34 -4 -4 -5 -3 -2 3 4 7 1
14 -6 17 -10 4 -13 -2 -9 -19 2 -14 9 -21 16 -17 6 3 8 3 4 -2 -4 -4 -2 -15 5
-23 10 -13 9 -14 -2 -7 -11 6 -13 4 -8 -9 4 -10 3 -15 -3 -11 -15 9 -12 -5 5
-22 10 -9 12 -20 7 -27 -10 -13 -10 -27 2 -44 7 -12 4 -12 -15 -2 -23 12 -23
12 -8 -6 8 -10 15 -26 14 -34 -1 -8 -3 -21 -3 -28 -1 -7 -6 -11 -10 -8 -5 3
-9 -1 -9 -9 0 -8 5 -11 10 -8 6 4 8 0 4 -10 -6 -16 9 -23 37 -18 5 1 4 -4 -2
-11 -7 -10 -8 -18 0 -28 8 -12 9 -12 4 3 -3 9 -3 17 1 17 3 0 12 -8 19 -17 12
-16 12 -15 8 7 -5 21 -4 22 6 8 6 -10 16 -18 21 -18 15 0 39 26 31 34 -3 4 2
4 12 0 16 -6 17 -8 2 -16 -9 -5 -16 -14 -16 -21 0 -7 4 -6 10 3 5 8 10 11 10
6 0 -5 8 -2 17 5 10 8 14 9 10 2 -4 -6 -2 -15 4 -19 8 -4 9 -3 5 4 -4 7 -3 12
3 12 6 0 8 8 5 17 -5 17 -5 17 6 0 6 -9 9 -21 6 -25 -6 -10 36 -8 52 2 7 4 12
4 12 0 0 -4 9 1 20 11 11 10 23 15 27 12 3 -4 2 -7 -4 -7 -6 0 -14 -7 -17 -16
-5 -13 -4 -14 7 -6 10 8 17 8 24 1 8 -8 13 -7 18 2 5 8 4 10 -3 5 -7 -4 -12
-2 -12 3 0 6 9 11 21 11 13 0 18 -4 13 -12 -4 -6 -3 -8 4 -4 5 3 13 0 15 -6 4
-10 6 -9 6 1 1 10 4 11 15 2 11 -9 16 -9 22 0 4 8 3 9 -4 5 -7 -4 -12 -2 -12
3 0 6 9 11 21 11 13 0 18 -4 13 -12 -4 -7 -3 -8 4 -4 7 4 12 3 12 -3 0 -10 19
-9 38 2 6 5 12 5 12 1 0 -3 7 -1 15 6 8 7 12 17 8 23 -3 6 -1 7 5 3 9 -5 9
-13 0 -29 -10 -19 -9 -20 4 -10 11 10 17 10 28 0 8 -8 11 -8 7 -1 -4 7 0 15 9
18 12 5 15 2 10 -10 -5 -13 -4 -14 7 -6 8 7 17 9 20 5 4 -3 14 0 24 8 9 8 14
9 10 2 -4 -6 -2 -15 4 -19 8 -4 9 -3 5 4 -4 7 -2 12 4 12 6 0 8 5 4 12 -5 7
-3 8 5 4 7 -5 10 -13 8 -20 -5 -13 31 -14 51 -2 7 4 12 4 12 0 0 -4 9 1 20 11
11 10 23 15 27 12 3 -4 2 -7 -4 -7 -6 0 -14 -7 -17 -16 -5 -13 -4 -14 7 -6 10
8 17 8 24 1 8 -8 13 -7 18 2 5 8 4 10 -3 5 -7 -4 -12 -2 -12 3 0 6 9 11 21 11
13 0 18 -4 13 -12 -4 -6 -3 -8 4 -4 5 3 13 0 15 -6 4 -10 6 -9 6 1 1 10 4 11
15 2 11 -9 16 -9 22 0 4 8 3 9 -4 5 -7 -4 -12 -2 -12 3 0 6 9 11 21 11 13 0
18 -4 13 -12 -4 -7 -3 -8 4 -4 7 4 12 2 12 -5 0 -10 3 -10 12 -1 10 10 10 15
-2 22 -9 6 -10 10 -3 10 6 0 14 -4 18 -10 3 -5 13 -6 22 -3 12 5 14 3 8 -8 -4
-8 -5 -11 0 -7 4 4 15 2 23 -5 10 -8 13 -8 9 -1 -4 7 0 15 9 18 12 5 15 2 10
-10 -5 -14 -4 -15 9 -4 12 10 13 16 3 29 -12 14 -11 14 4 2 10 -7 16 -17 13
-21 -3 -5 0 -12 6 -16 7 -4 10 -3 7 2 -3 5 -2 18 3 29 7 19 8 19 8 -2 1 -26
11 -29 30 -11 10 9 12 9 7 1 -3 -6 -1 -15 5 -19 8 -4 9 -3 5 4 -4 7 -3 12 3
12 6 0 8 8 5 17 -5 17 -5 17 6 0 6 -9 9 -21 6 -25 -6 -10 36 -8 52 2 7 4 12 4
12 0 0 -4 9 1 20 11 15 14 23 16 31 8 6 -6 18 -9 27 -6 11 5 13 3 7 -8 -4 -8
-5 -11 0 -7 4 4 15 2 23 -5 10 -8 13 -8 9 -1 -4 7 0 15 9 18 12 5 15 2 10 -10
-5 -14 -4 -15 9 -4 12 10 13 16 3 29 -12 14 -11 14 4 2 10 -7 16 -17 13 -21
-3 -5 0 -12 6 -16 7 -4 10 -3 7 2 -3 5 -2 18 3 29 7 19 8 19 8 -2 1 -26 11
-29 30 -10 10 8 12 8 7 0 -3 -6 -1 -15 5 -19 8 -4 9 -3 5 4 -4 7 -3 12 3 12 6
0 8 8 5 18 -5 16 -5 16 6 -1 6 -9 9 -21 6 -25 -6 -10 36 -8 52 2 7 4 12 4 12
0 0 -4 9 1 20 11 11 10 23 15 27 12 3 -4 2 -7 -4 -7 -6 0 -14 -7 -17 -16 -5
-13 -4 -14 7 -6 10 8 17 8 24 1 8 -8 13 -7 18 2 5 8 4 10 -3 5 -7 -4 -12 -2
-12 3 0 6 9 11 21 11 13 0 18 -4 13 -12 -4 -6 -3 -8 4 -4 5 3 13 0 15 -6 4
-10 6 -9 6 1 1 10 4 11 15 2 11 -9 16 -9 22 0 4 8 3 9 -4 5 -7 -4 -12 -2 -12
3 0 6 9 11 21 11 13 0 18 -4 13 -12 -4 -6 -3 -8 4 -4 5 3 13 0 15 -6 4 -10 6
-10 6 0 1 7 7 10 14 7 6 -4 3 1 -8 11 -19 16 -19 16 -1 10 11 -4 23 -1 28 6 6
9 7 5 3 -9 -4 -14 -2 -23 4 -23 9 0 16 35 13 61 -1 4 9 5 21 2 19 -4 20 -3 5
7 -21 13 -24 31 -5 26 6 -1 9 -1 4 1 -4 3 -4 10 -1 15 4 7 2 8 -4 4 -18 -11
-14 4 5 28 10 12 11 15 3 9 -22 -20 -26 -16 -26 30 0 39 3 43 21 40 19 -4 19
-4 -1 9 -13 8 -20 22 -19 36 1 13 -2 25 -7 28 -4 3 -8 10 -8 15 0 6 7 3 16 -5
8 -9 21 -16 27 -16 7 0 6 4 -3 10 -12 8 -13 11 -1 19 9 6 10 11 2 15 -6 4 -11
2 -11 -4 0 -6 -5 -8 -11 -5 -7 5 -4 14 7 26 9 11 14 22 11 26 -4 3 -7 1 -7 -6
0 -7 -4 -10 -9 -6 -10 5 -7 37 4 54 3 6 -3 14 -12 20 -24 14 -8 14 20 0 22
-10 22 -10 2 8 -29 27 -33 53 -4 28 l23 -20 -16 23 c-9 13 -13 33 -10 44 3 14
-1 26 -13 34 -22 17 -12 18 18 3 22 -10 22 -10 2 8 -11 10 -21 25 -23 33 -3
12 -1 13 9 3 7 -7 18 -13 23 -13 6 0 5 4 -3 9 -12 8 -12 12 -2 25 8 9 9 16 3
16 -6 0 -12 -6 -15 -12 -3 -9 -10 -7 -23 6 -11 11 -12 15 -4 8 13 -9 18 -7 29
9 7 12 10 24 7 27 -3 3 -6 0 -6 -6 0 -7 -4 -12 -10 -12 -5 0 -6 7 -3 17 5 12
3 14 -8 8 -11 -7 -12 -6 -2 6 7 8 11 33 9 56 -3 36 -1 40 18 36 21 -4 21 -4 1
9 -12 7 -20 20 -20 28 0 8 -4 19 -10 23 -5 5 1 6 15 2 21 -5 23 -4 10 7 -8 7
-16 20 -18 28 -3 10 3 9 19 -5 l22 -20 -18 27 c-10 16 -22 25 -29 21 -6 -4 -5
1 3 10 14 17 26 24 17 9 -3 -5 1 -9 8 -9 9 0 11 6 6 16 -4 9 -12 31 -18 49
-10 30 -9 32 6 20 11 -9 14 -9 8 -1 -4 7 -2 23 4 35 10 21 10 22 -4 5 -12 -15
-18 -17 -33 -7 -12 8 -13 10 -2 7 21 -7 46 31 25 39 -8 3 -13 16 -11 30 1 13
-1 27 -6 30 -12 7 13 44 26 38 5 -3 -1 4 -14 15 -26 23 -21 27 12 10 22 -10
22 -10 2 8 -11 10 -21 25 -23 33 -3 10 2 9 17 -4 12 -11 21 -14 21 -8 0 6 -6
12 -12 15 -10 3 -10 7 1 20 7 10 9 17 3 17 -6 0 -12 -5 -14 -12 -3 -8 -9 -8
-24 1 -11 7 -13 11 -3 8 16 -5 45 30 35 41 -3 3 -6 0 -6 -6 0 -7 -4 -12 -10
-12 -5 0 -6 7 -3 17 5 12 3 14 -8 8 -11 -7 -12 -6 -2 6 7 8 11 33 9 56 -3 36
-1 40 18 36 21 -4 21 -4 1 9 -12 7 -21 25 -21 41 -1 30 5 33 26 15 12 -11 12
-10 0 5 -12 16 -12 20 1 28 8 5 9 9 4 9 -6 0 -15 -4 -21 -10 -6 -6 -10 -3 -11
10 -1 13 3 17 13 13 10 -4 12 0 8 11 -4 10 -1 16 7 16 7 0 9 3 6 6 -4 4 -13 1
-22 -6 -18 -15 -19 -1 -1 22 7 10 17 14 21 10 5 -4 5 -1 1 6 -4 7 -11 10 -16
7 -12 -7 -19 32 -8 43 6 6 6 17 -1 30 -6 10 -7 22 -4 26 3 3 1 6 -4 6 -6 0
-14 -6 -16 -12 -3 -8 -6 -6 -6 5 -1 9 -6 17 -12 17 -5 0 -8 -4 -4 -9 3 -5 1
-12 -4 -15 -5 -4 -13 -1 -17 5 -4 8 -3 9 4 5 8 -5 10 -2 6 8 -8 20 -5 21 -29
-12z m8 -19 c-7 -2 -9 -11 -6 -19 3 -8 1 -14 -5 -14 -11 0 -11 18 2 38 4 7 11
10 15 6 3 -4 1 -9 -6 -11z m-1578 -263 c3 -5 1 -10 -4 -10 -6 0 -11 5 -11 10
0 6 2 10 4 10 3 0 8 -4 11 -10z m190 -190 c3 -6 -1 -7 -9 -4 -18 7 -21 14 -7
14 6 0 13 -4 16 -10z m29 -13 c1 -8 7 -21 14 -29 9 -12 9 -15 -3 -15 -8 0 -12
4 -9 8 2 4 0 10 -6 14 -5 3 -10 16 -10 27 0 23 10 19 14 -5z m886 -51 c0 -3
-4 -8 -10 -11 -5 -3 -10 -1 -10 4 0 6 5 11 10 11 6 0 10 -2 10 -4z m-29 -23
c12 -16 12 -17 -2 -6 -9 7 -20 9 -24 5 -5 -4 -5 -1 -1 6 9 16 11 15 27 -5z
m-747 -51 c3 -5 -1 -9 -9 -9 -8 0 -12 4 -9 9 3 4 7 8 9 8 2 0 6 -4 9 -8z m596
-74 c-13 -13 -19 -16 -15 -8 14 25 28 41 32 36 3 -3 -5 -15 -17 -28z m-520 2
c0 -5 -2 -10 -4 -10 -3 0 -8 5 -11 10 -3 6 -1 10 4 10 6 0 11 -4 11 -10z m480
-77 c0 -3 -7 -3 -15 1 -10 3 -15 -1 -15 -11 0 -9 -3 -14 -6 -10 -12 12 5 37
21 31 8 -3 15 -8 15 -11z m763 -14 c-8 -8 -13 -7 -18 2 -5 8 -4 10 3 5 7 -4
12 -2 12 5 0 7 3 9 7 6 4 -4 2 -12 -4 -18z m-883 -78 c0 -5 -7 -12 -16 -15
-14 -5 -15 -4 -4 9 14 17 20 19 20 6z m-50 -66 c-7 -9 -15 -13 -17 -11 -7 7 7
26 19 26 6 0 6 -6 -2 -15z m933 -275 c-3 -12 -8 -19 -11 -16 -5 6 5 36 12 36
2 0 2 -9 -1 -20z m-1695 -505 c-3 -3 -9 2 -12 12 -6 14 -5 15 5 6 7 -7 10 -15
7 -18z m163 8 c8 -10 9 -14 2 -10 -6 4 -14 3 -18 -2 -7 -12 -35 -3 -35 11 0 6
6 5 15 -2 14 -11 19 -7 16 13 -2 12 6 8 20 -10z m208 10 c-3 -20 2 -24 15 -14
11 9 16 9 22 0 4 -7 3 -9 -4 -5 -6 3 -14 2 -17 -4 -5 -8 -11 -7 -21 1 -7 6
-11 15 -8 20 6 11 14 12 13 2z m240 0 c-3 -20 2 -24 15 -14 11 9 16 9 22 -1 4
-7 4 -10 -1 -6 -4 4 -13 4 -19 -2 -15 -11 -41 4 -32 19 8 13 17 15 15 4z m512
-10 c8 -10 9 -14 2 -10 -6 4 -14 3 -18 -2 -7 -12 -35 -3 -35 11 0 6 6 5 15 -2
14 -11 19 -7 16 13 -2 12 6 8 20 -10z m320 0 c8 -10 9 -14 2 -10 -6 4 -14 3
-18 -2 -7 -12 -35 -3 -35 11 0 6 6 5 15 -2 14 -11 19 -7 16 13 -2 12 6 8 20
-10z m-911 1 c0 -8 -19 -13 -24 -6 -3 5 1 9 9 9 8 0 15 -2 15 -3z"/>
<path d="M1830 1769 c0 -5 5 -7 10 -4 6 3 10 8 10 11 0 2 -4 4 -10 4 -5 0 -10
-5 -10 -11z"/>
<path d="M1826 1721 c-4 -5 -2 -12 3 -15 5 -4 12 -2 15 3 4 5 2 12 -3 15 -5 4
-12 2 -15 -3z"/>
<path d="M1526 1538 c3 -5 10 -6 15 -3 13 9 11 12 -6 12 -8 0 -12 -4 -9 -9z"/>
<path d="M1821 1543 c-1 -17 16 -25 25 -12 4 7 3 9 -4 5 -5 -3 -13 0 -15 6 -4
9 -6 10 -6 1z"/>
<path d="M1829 1453 c-13 -16 -12 -17 4 -4 16 13 21 21 13 21 -2 0 -10 -8 -17
-17z"/>
<path d="M214 1427 c-4 -6 -3 -9 1 -4 5 4 19 0 31 -8 15 -10 25 -11 29 -4 4 6
4 13 1 16 -3 4 -6 0 -6 -8 -1 -12 -3 -11 -13 1 -16 20 -34 23 -43 7z"/>
<path d="M1831 1422 c-7 -13 -6 -19 2 -19 7 0 13 9 13 19 0 10 -1 18 -3 18 -1
0 -7 -8 -12 -18z"/>
<path d="M455 1240 c3 -5 8 -10 11 -10 2 0 4 5 4 10 0 6 -5 10 -11 10 -5 0 -7
-4 -4 -10z"/>
<path d="M3 1225 c0 -8 4 -12 9 -9 5 3 6 10 3 15 -9 13 -12 11 -12 -6z"/>
<path d="M427 1224 c3 -8 8 -12 11 -10 3 3 11 1 19 -5 7 -7 13 -7 13 -2 0 5
-11 15 -25 21 -20 9 -23 9 -18 -4z"/>
<path d="M1816 1221 c-3 -5 1 -11 9 -14 9 -4 12 -1 8 9 -6 16 -10 17 -17 5z"/>
<path d="M1820 1181 c0 -10 19 -25 25 -20 1 2 -3 10 -11 17 -8 7 -14 8 -14 3z"/>
<path d="M533 1145 c0 -8 4 -12 9 -9 5 3 6 10 3 15 -9 13 -12 11 -12 -6z"/>
<path d="M593 1070 c5 -29 13 -33 13 -5 0 14 -4 25 -8 25 -4 0 -7 -9 -5 -20z"/>
<path d="M1043 1065 c0 -8 4 -12 9 -9 5 3 6 10 3 15 -9 13 -12 11 -12 -6z"/>
<path d="M635 1030 c-3 -5 -1 -10 4 -10 6 0 11 5 11 10 0 6 -2 10 -4 10 -3 0
-8 -4 -11 -10z"/>
<path d="M4 993 c-1 -13 -1 -23 0 -21 1 2 7 10 14 19 10 13 10 18 0 22 -8 3
-14 -5 -14 -20z"/>
<path d="M1826 888 c3 -5 10 -6 15 -3 13 9 11 12 -6 12 -8 0 -12 -4 -9 -9z"/>
<path d="M1829 813 c-13 -16 -12 -17 4 -4 16 13 21 21 13 21 -2 0 -10 -8 -17
-17z"/>
<path d="M1831 782 c-7 -13 -6 -19 2 -19 7 0 13 9 13 19 0 10 -1 18 -3 18 -1
0 -7 -8 -12 -18z"/>
<path d="M4 753 c-1 -13 -1 -23 0 -21 1 2 7 10 14 19 10 13 10 18 0 22 -8 3
-14 -5 -14 -20z"/>
<path d="M4 513 c-1 -13 -1 -23 0 -21 1 2 7 10 14 19 10 13 10 18 0 22 -8 3
-14 -5 -14 -20z"/>
<path d="M1826 472 c-3 -5 1 -9 9 -9 8 0 12 4 9 9 -3 4 -7 8 -9 8 -2 0 -6 -4
-9 -8z"/>
<path d="M1820 341 c0 -10 19 -25 25 -20 1 2 -3 10 -11 17 -8 7 -14 8 -14 3z"/>
<path d="M5 279 c1 -10 4 -21 8 -24 4 -3 5 -2 2 2 -3 3 0 12 5 18 7 9 6 14 -3
18 -9 3 -13 -2 -12 -14z"/>
<path d="M1830 260 c-9 -6 -10 -10 -3 -10 6 0 15 5 18 10 8 12 4 12 -15 0z"/>
<path d="M5 180 c3 -5 8 -10 11 -10 2 0 4 5 4 10 0 6 -5 10 -11 10 -5 0 -7 -4
-4 -10z"/>
<path d="M1825 100 c3 -5 8 -10 11 -10 2 0 4 5 4 10 0 6 -5 10 -11 10 -5 0 -7
-4 -4 -10z"/>
<path d="M17 93 c-4 -3 -7 -11 -7 -17 0 -6 5 -5 12 2 6 6 9 14 7 17 -3 3 -9 2
-12 -2z"/>
<path d="M1267 76 c-4 -10 -1 -13 9 -9 7 3 14 9 14 14 0 14 -17 10 -23 -5z"/>
</g>
</svg>
